<mxfile host="app.diagrams.net" modified="2023-01-03T02:36:33.861Z" agent="5.0 (Windows NT 10.0; Win64; x64) AppleWebKit/537.36 (KHTML, like Gecko) Chrome/108.0.0.0 Safari/537.36" etag="VfQTOf-zljRDq_CdA-8F" version="20.8.0" type="github" pages="2">
  <diagram id="-A8OcgJz8j3Tusm_rk3Z" name="Page-1">
    <mxGraphModel dx="1334" dy="880" grid="1" gridSize="10" guides="1" tooltips="1" connect="1" arrows="1" fold="1" page="1" pageScale="1" pageWidth="827" pageHeight="1169" math="0" shadow="0">
      <root>
        <mxCell id="0" />
        <mxCell id="1" parent="0" />
        <mxCell id="sWSc0Y3Wi_pubG3kUC_Z-1" value="" style="html=1;shadow=0;dashed=0;shape=mxgraph.bootstrap.rect;fillColor=#222222;strokeColor=none;whiteSpace=wrap;rounded=0;fontSize=12;fontColor=#000000;align=center;" parent="1" vertex="1">
          <mxGeometry x="34" y="60" width="760" height="40" as="geometry" />
        </mxCell>
        <mxCell id="sWSc0Y3Wi_pubG3kUC_Z-2" value="Tab 1" style="html=1;shadow=0;dashed=0;fillColor=none;strokeColor=none;shape=mxgraph.bootstrap.rect;fontColor=#999999;fontSize=14;whiteSpace=wrap;" parent="sWSc0Y3Wi_pubG3kUC_Z-1" vertex="1">
          <mxGeometry width="76" height="40" as="geometry" />
        </mxCell>
        <mxCell id="sWSc0Y3Wi_pubG3kUC_Z-3" value="Tab 2" style="html=1;shadow=0;dashed=0;shape=mxgraph.bootstrap.rect;fillColor=#000000;strokeColor=none;fontColor=#ffffff;spacingRight=30;whiteSpace=wrap;" parent="sWSc0Y3Wi_pubG3kUC_Z-1" vertex="1">
          <mxGeometry x="76" width="85.5" height="40" as="geometry" />
        </mxCell>
        <mxCell id="sWSc0Y3Wi_pubG3kUC_Z-4" value="84" style="html=1;shadow=0;dashed=0;shape=mxgraph.bootstrap.rrect;rSize=8;fillColor=#ff0000;strokeColor=none;fontColor=#ffffff;whiteSpace=wrap;" parent="sWSc0Y3Wi_pubG3kUC_Z-3" vertex="1">
          <mxGeometry x="1" y="0.5" width="25" height="16" relative="1" as="geometry">
            <mxPoint x="-30" y="-8" as="offset" />
          </mxGeometry>
        </mxCell>
        <mxCell id="sWSc0Y3Wi_pubG3kUC_Z-5" value="Tab 3" style="html=1;shadow=0;dashed=0;fillColor=none;strokeColor=none;shape=mxgraph.bootstrap.rect;fontColor=#999999;spacingRight=30;whiteSpace=wrap;" parent="sWSc0Y3Wi_pubG3kUC_Z-1" vertex="1">
          <mxGeometry x="161.5" width="104.5" height="40" as="geometry" />
        </mxCell>
        <mxCell id="sWSc0Y3Wi_pubG3kUC_Z-6" value="42" style="html=1;shadow=0;dashed=0;shape=mxgraph.bootstrap.rrect;rSize=8;fillColor=#ff0000;strokeColor=none;fontColor=#ffffff;whiteSpace=wrap;" parent="sWSc0Y3Wi_pubG3kUC_Z-5" vertex="1">
          <mxGeometry x="1" y="0.5" width="25" height="16" relative="1" as="geometry">
            <mxPoint x="-30" y="-8" as="offset" />
          </mxGeometry>
        </mxCell>
        <mxCell id="sWSc0Y3Wi_pubG3kUC_Z-7" value="Tab 4" style="html=1;shadow=0;dashed=0;fillColor=none;strokeColor=none;shape=mxgraph.bootstrap.rect;fontColor=#999999;whiteSpace=wrap;" parent="sWSc0Y3Wi_pubG3kUC_Z-1" vertex="1">
          <mxGeometry x="266" width="76" height="40" as="geometry" />
        </mxCell>
        <mxCell id="sWSc0Y3Wi_pubG3kUC_Z-8" value="Settings" style="html=1;shadow=0;dashed=0;fillColor=none;strokeColor=none;shape=mxgraph.bootstrap.rect;fontColor=#999999;whiteSpace=wrap;" parent="sWSc0Y3Wi_pubG3kUC_Z-1" vertex="1">
          <mxGeometry x="342" width="66.5" height="40" as="geometry" />
        </mxCell>
        <mxCell id="sWSc0Y3Wi_pubG3kUC_Z-9" value="Profile" style="html=1;shadow=0;dashed=0;fillColor=none;strokeColor=none;shape=mxgraph.bootstrap.rect;fontColor=#999999;whiteSpace=wrap;" parent="sWSc0Y3Wi_pubG3kUC_Z-1" vertex="1">
          <mxGeometry x="627" width="66.5" height="40" as="geometry" />
        </mxCell>
        <mxCell id="sWSc0Y3Wi_pubG3kUC_Z-10" value="Log Out" style="html=1;shadow=0;dashed=0;fillColor=none;strokeColor=none;shape=mxgraph.bootstrap.rect;fontColor=#999999;whiteSpace=wrap;" parent="sWSc0Y3Wi_pubG3kUC_Z-1" vertex="1">
          <mxGeometry x="693.5" width="66.5" height="40" as="geometry" />
        </mxCell>
        <mxCell id="nRcetMsO4flzL34NM-HN-4" value="Search prospects with tags..." style="html=1;shadow=0;dashed=0;shape=mxgraph.bootstrap.rrect;rSize=5;strokeColor=#CED4DA;html=1;whiteSpace=wrap;fillColor=#FFFFFF;fontColor=#7D868C;align=left;spacing=15;spacingLeft=80;fontSize=14;" parent="1" vertex="1">
          <mxGeometry x="68" y="310" width="691" height="40" as="geometry" />
        </mxCell>
        <mxCell id="nRcetMsO4flzL34NM-HN-6" value="Browse" style="html=1;shadow=0;dashed=0;shape=mxgraph.bootstrap.rightButton;strokeColor=#CED4DA;gradientColor=inherit;fontColor=inherit;fillColor=#E9ECEF;rSize=5;perimeter=none;whiteSpace=wrap;resizeHeight=1;fontSize=14;align=left;spacing=15;" parent="nRcetMsO4flzL34NM-HN-4" vertex="1">
          <mxGeometry x="1" width="80" height="40" relative="1" as="geometry">
            <mxPoint x="-80" as="offset" />
          </mxGeometry>
        </mxCell>
        <mxCell id="nRcetMsO4flzL34NM-HN-9" value="Simple" style="html=1;shadow=0;dashed=0;shape=mxgraph.bootstrap.leftButton;strokeColor=#6C757D;gradientColor=inherit;fontColor=inherit;fillColor=inherit;rSize=5;perimeter=none;whiteSpace=wrap;resizeHeight=1;fontSize=14;align=left;spacing=15;" parent="nRcetMsO4flzL34NM-HN-4" vertex="1">
          <mxGeometry width="80" height="40" relative="1" as="geometry">
            <mxPoint as="offset" />
          </mxGeometry>
        </mxCell>
        <mxCell id="nRcetMsO4flzL34NM-HN-10" value="" style="shape=triangle;direction=south;fillColor=#6C767D;strokeColor=none;perimeter=none;" parent="nRcetMsO4flzL34NM-HN-9" vertex="1">
          <mxGeometry x="1" y="0.5" width="10" height="5" relative="1" as="geometry">
            <mxPoint x="-17" y="-2.5" as="offset" />
          </mxGeometry>
        </mxCell>
        <mxCell id="nRcetMsO4flzL34NM-HN-11" value="" style="html=1;shadow=0;dashed=0;shape=mxgraph.bootstrap.rrect;rSize=5;strokeColor=#DFDFDF;html=1;whiteSpace=wrap;fillColor=#FFFFFF;fontColor=#000000;" parent="1" vertex="1">
          <mxGeometry x="68" y="360" width="80" height="90" as="geometry" />
        </mxCell>
        <mxCell id="nRcetMsO4flzL34NM-HN-12" value="Expression" style="html=1;shadow=0;dashed=0;shape=mxgraph.bootstrap.topButton;strokeColor=inherit;fillColor=#F7F7F7;rSize=5;perimeter=none;whiteSpace=wrap;resizeWidth=1;align=left;spacing=10;" parent="nRcetMsO4flzL34NM-HN-11" vertex="1">
          <mxGeometry width="80" height="30" relative="1" as="geometry" />
        </mxCell>
        <mxCell id="nRcetMsO4flzL34NM-HN-13" value="Prospect id" style="strokeColor=inherit;fillColor=inherit;gradientColor=inherit;fontColor=inherit;html=1;shadow=0;dashed=0;perimeter=none;whiteSpace=wrap;resizeWidth=1;align=left;spacing=10;" parent="nRcetMsO4flzL34NM-HN-11" vertex="1">
          <mxGeometry width="80" height="30" relative="1" as="geometry">
            <mxPoint y="30" as="offset" />
          </mxGeometry>
        </mxCell>
        <mxCell id="nRcetMsO4flzL34NM-HN-14" value="etc..." style="strokeColor=inherit;fillColor=inherit;gradientColor=inherit;fontColor=inherit;html=1;shadow=0;dashed=0;perimeter=none;whiteSpace=wrap;resizeWidth=1;align=left;spacing=10;" parent="nRcetMsO4flzL34NM-HN-11" vertex="1">
          <mxGeometry width="80" height="30" relative="1" as="geometry">
            <mxPoint y="60" as="offset" />
          </mxGeometry>
        </mxCell>
        <mxCell id="nRcetMsO4flzL34NM-HN-16" value="&lt;font style=&quot;font-size: 30px;&quot;&gt;Smart Tagging&lt;/font&gt;" style="html=1;shadow=0;dashed=0;shape=mxgraph.bootstrap.rrect;rSize=5;strokeColor=none;strokeWidth=1;fillColor=#F8F9FA;fontColor=#000000;whiteSpace=wrap;align=center;verticalAlign=middle;spacingLeft=0;fontStyle=1;fontSize=14;spacing=5;" parent="1" vertex="1">
          <mxGeometry x="89" y="170" width="650" height="60" as="geometry" />
        </mxCell>
        <mxCell id="VnTAyBryoPv42cLmbULo-1" value="Entry page" style="text;strokeColor=none;fillColor=none;html=1;fontSize=24;fontStyle=1;verticalAlign=middle;align=center;" parent="1" vertex="1">
          <mxGeometry x="34" y="10" width="136" height="40" as="geometry" />
        </mxCell>
      </root>
    </mxGraphModel>
  </diagram>
  <diagram id="dtwfEMEkhZzNR0sIO8AM" name="Page-2">
    <mxGraphModel dx="1334" dy="880" grid="1" gridSize="10" guides="1" tooltips="1" connect="1" arrows="1" fold="1" page="1" pageScale="1" pageWidth="827" pageHeight="1169" math="0" shadow="0">
      <root>
        <mxCell id="0" />
        <mxCell id="1" parent="0" />
        <mxCell id="BrQ3PkhEquReS4DpKObg-1" value="" style="html=1;shadow=0;dashed=0;shape=mxgraph.bootstrap.rect;fillColor=#222222;strokeColor=none;whiteSpace=wrap;rounded=0;fontSize=12;fontColor=#000000;align=center;" parent="1" vertex="1">
          <mxGeometry x="34" y="60" width="760" height="40" as="geometry" />
        </mxCell>
        <mxCell id="BrQ3PkhEquReS4DpKObg-2" value="Tab 1" style="html=1;shadow=0;dashed=0;fillColor=none;strokeColor=none;shape=mxgraph.bootstrap.rect;fontColor=#999999;fontSize=14;whiteSpace=wrap;" parent="BrQ3PkhEquReS4DpKObg-1" vertex="1">
          <mxGeometry width="76" height="40" as="geometry" />
        </mxCell>
        <mxCell id="BrQ3PkhEquReS4DpKObg-3" value="Tab 2" style="html=1;shadow=0;dashed=0;shape=mxgraph.bootstrap.rect;fillColor=#000000;strokeColor=none;fontColor=#ffffff;spacingRight=30;whiteSpace=wrap;" parent="BrQ3PkhEquReS4DpKObg-1" vertex="1">
          <mxGeometry x="76" width="85.5" height="40" as="geometry" />
        </mxCell>
        <mxCell id="BrQ3PkhEquReS4DpKObg-4" value="84" style="html=1;shadow=0;dashed=0;shape=mxgraph.bootstrap.rrect;rSize=8;fillColor=#ff0000;strokeColor=none;fontColor=#ffffff;whiteSpace=wrap;" parent="BrQ3PkhEquReS4DpKObg-3" vertex="1">
          <mxGeometry x="1" y="0.5" width="25" height="16" relative="1" as="geometry">
            <mxPoint x="-30" y="-8" as="offset" />
          </mxGeometry>
        </mxCell>
        <mxCell id="BrQ3PkhEquReS4DpKObg-5" value="Tab 3" style="html=1;shadow=0;dashed=0;fillColor=none;strokeColor=none;shape=mxgraph.bootstrap.rect;fontColor=#999999;spacingRight=30;whiteSpace=wrap;" parent="BrQ3PkhEquReS4DpKObg-1" vertex="1">
          <mxGeometry x="161.5" width="104.5" height="40" as="geometry" />
        </mxCell>
        <mxCell id="BrQ3PkhEquReS4DpKObg-6" value="42" style="html=1;shadow=0;dashed=0;shape=mxgraph.bootstrap.rrect;rSize=8;fillColor=#ff0000;strokeColor=none;fontColor=#ffffff;whiteSpace=wrap;" parent="BrQ3PkhEquReS4DpKObg-5" vertex="1">
          <mxGeometry x="1" y="0.5" width="25" height="16" relative="1" as="geometry">
            <mxPoint x="-30" y="-8" as="offset" />
          </mxGeometry>
        </mxCell>
        <mxCell id="BrQ3PkhEquReS4DpKObg-7" value="Tab 4" style="html=1;shadow=0;dashed=0;fillColor=none;strokeColor=none;shape=mxgraph.bootstrap.rect;fontColor=#999999;whiteSpace=wrap;" parent="BrQ3PkhEquReS4DpKObg-1" vertex="1">
          <mxGeometry x="266" width="76" height="40" as="geometry" />
        </mxCell>
        <mxCell id="BrQ3PkhEquReS4DpKObg-8" value="Settings" style="html=1;shadow=0;dashed=0;fillColor=none;strokeColor=none;shape=mxgraph.bootstrap.rect;fontColor=#999999;whiteSpace=wrap;" parent="BrQ3PkhEquReS4DpKObg-1" vertex="1">
          <mxGeometry x="342" width="66.5" height="40" as="geometry" />
        </mxCell>
        <mxCell id="BrQ3PkhEquReS4DpKObg-9" value="Profile" style="html=1;shadow=0;dashed=0;fillColor=none;strokeColor=none;shape=mxgraph.bootstrap.rect;fontColor=#999999;whiteSpace=wrap;" parent="BrQ3PkhEquReS4DpKObg-1" vertex="1">
          <mxGeometry x="627" width="66.5" height="40" as="geometry" />
        </mxCell>
        <mxCell id="BrQ3PkhEquReS4DpKObg-10" value="Log Out" style="html=1;shadow=0;dashed=0;fillColor=none;strokeColor=none;shape=mxgraph.bootstrap.rect;fontColor=#999999;whiteSpace=wrap;" parent="BrQ3PkhEquReS4DpKObg-1" vertex="1">
          <mxGeometry x="693.5" width="66.5" height="40" as="geometry" />
        </mxCell>
        <mxCell id="tISNuov25Qb8dmOwEWIj-1" value="Insight page" style="text;strokeColor=none;fillColor=none;html=1;fontSize=24;fontStyle=1;verticalAlign=middle;align=center;" parent="1" vertex="1">
          <mxGeometry x="34" y="10" width="136" height="40" as="geometry" />
        </mxCell>
        <mxCell id="mpwzxOwOMJrgIJzlb4Dt-1" value="重疾" style="html=1;shadow=0;dashed=0;shape=mxgraph.bootstrap.rrect;rSize=5;strokeColor=#CED4DA;html=1;whiteSpace=wrap;fillColor=#FFFFFF;fontColor=#7D868C;align=left;spacing=15;spacingLeft=80;fontSize=14;" parent="1" vertex="1">
          <mxGeometry x="34" y="110" width="606" height="30" as="geometry" />
        </mxCell>
        <mxCell id="mpwzxOwOMJrgIJzlb4Dt-2" value="Browse" style="html=1;shadow=0;dashed=0;shape=mxgraph.bootstrap.rightButton;strokeColor=#CED4DA;gradientColor=inherit;fontColor=inherit;fillColor=#E9ECEF;rSize=5;perimeter=none;whiteSpace=wrap;resizeHeight=1;fontSize=14;align=left;spacing=15;" parent="mpwzxOwOMJrgIJzlb4Dt-1" vertex="1">
          <mxGeometry x="1" width="80" height="30" relative="1" as="geometry">
            <mxPoint x="-80" as="offset" />
          </mxGeometry>
        </mxCell>
        <mxCell id="mpwzxOwOMJrgIJzlb4Dt-3" value="Simple" style="html=1;shadow=0;dashed=0;shape=mxgraph.bootstrap.leftButton;strokeColor=#6C757D;gradientColor=inherit;fontColor=inherit;fillColor=inherit;rSize=5;perimeter=none;whiteSpace=wrap;resizeHeight=1;fontSize=14;align=left;spacing=15;" parent="mpwzxOwOMJrgIJzlb4Dt-1" vertex="1">
          <mxGeometry width="80" height="30" relative="1" as="geometry">
            <mxPoint as="offset" />
          </mxGeometry>
        </mxCell>
        <mxCell id="mpwzxOwOMJrgIJzlb4Dt-4" value="" style="shape=triangle;direction=south;fillColor=#6C767D;strokeColor=none;perimeter=none;" parent="mpwzxOwOMJrgIJzlb4Dt-3" vertex="1">
          <mxGeometry x="1" y="0.5" width="10" height="5" relative="1" as="geometry">
            <mxPoint x="-17" y="-2.5" as="offset" />
          </mxGeometry>
        </mxCell>
        <mxCell id="IVhhmlBJzWaTM9tkxCPf-21" value="" style="group" parent="1" vertex="1" connectable="0">
          <mxGeometry x="320" y="230" width="120" height="36" as="geometry" />
        </mxCell>
        <mxCell id="IVhhmlBJzWaTM9tkxCPf-16" value="&lt;font style=&quot;font-size: 12px;&quot;&gt;NRC&lt;/font&gt;" style="shape=rect;rounded=1;whiteSpace=wrap;html=1;shadow=0;strokeColor=none;fillColor=#B1DDF0;arcSize=30;fontSize=14;spacingLeft=42;fontStyle=1;fontColor=#FFFFFF;align=left;container=0;" parent="IVhhmlBJzWaTM9tkxCPf-21" vertex="1">
          <mxGeometry x="18" y="6" width="102" height="24" as="geometry" />
        </mxCell>
        <mxCell id="IVhhmlBJzWaTM9tkxCPf-17" value="207" style="shape=ellipse;perimeter=ellipsePerimeter;fontSize=12;fontStyle=1;shadow=0;strokeColor=#ffffff;fillColor=#10739E;strokeWidth=4;fontColor=#ffffff;align=center;container=0;" parent="IVhhmlBJzWaTM9tkxCPf-21" vertex="1">
          <mxGeometry width="36" height="36" as="geometry" />
        </mxCell>
        <mxCell id="IVhhmlBJzWaTM9tkxCPf-28" value="" style="group" parent="1" vertex="1" connectable="0">
          <mxGeometry x="450" y="270" width="120" height="36" as="geometry" />
        </mxCell>
        <mxCell id="IVhhmlBJzWaTM9tkxCPf-26" value="&lt;font style=&quot;font-size: 12px;&quot;&gt;女性&lt;/font&gt;" style="shape=rect;rounded=1;whiteSpace=wrap;html=1;shadow=0;strokeColor=none;fillColor=#B1DDF0;arcSize=30;fontSize=14;spacingLeft=42;fontStyle=1;fontColor=#FFFFFF;align=left;container=0;" parent="IVhhmlBJzWaTM9tkxCPf-28" vertex="1">
          <mxGeometry x="18" y="6" width="102" height="24" as="geometry" />
        </mxCell>
        <mxCell id="IVhhmlBJzWaTM9tkxCPf-27" value="193" style="shape=ellipse;perimeter=ellipsePerimeter;fontSize=12;fontStyle=1;shadow=0;strokeColor=#ffffff;fillColor=#10739E;strokeWidth=4;fontColor=#ffffff;align=center;container=0;" parent="IVhhmlBJzWaTM9tkxCPf-28" vertex="1">
          <mxGeometry width="36" height="36" as="geometry" />
        </mxCell>
        <mxCell id="IVhhmlBJzWaTM9tkxCPf-35" value="" style="group" parent="1" vertex="1" connectable="0">
          <mxGeometry x="450" y="230" width="120" height="36" as="geometry" />
        </mxCell>
        <mxCell id="IVhhmlBJzWaTM9tkxCPf-36" value="&lt;span style=&quot;font-size: 12px;&quot;&gt;HNW&lt;/span&gt;" style="shape=rect;rounded=1;whiteSpace=wrap;html=1;shadow=0;strokeColor=none;fillColor=#B1DDF0;arcSize=30;fontSize=14;spacingLeft=42;fontStyle=1;fontColor=#FFFFFF;align=left;container=0;" parent="IVhhmlBJzWaTM9tkxCPf-35" vertex="1">
          <mxGeometry x="18" y="6" width="102" height="24" as="geometry" />
        </mxCell>
        <mxCell id="IVhhmlBJzWaTM9tkxCPf-37" value="256" style="shape=ellipse;perimeter=ellipsePerimeter;fontSize=12;fontStyle=1;shadow=0;strokeColor=#ffffff;fillColor=#10739E;strokeWidth=4;fontColor=#ffffff;align=center;container=0;" parent="IVhhmlBJzWaTM9tkxCPf-35" vertex="1">
          <mxGeometry width="36" height="36" as="geometry" />
        </mxCell>
        <mxCell id="IVhhmlBJzWaTM9tkxCPf-33" value="" style="group" parent="1" vertex="1" connectable="0">
          <mxGeometry x="460" y="190" width="120" height="36" as="geometry" />
        </mxCell>
        <mxCell id="IVhhmlBJzWaTM9tkxCPf-31" value="&lt;font style=&quot;font-size: 8px;&quot;&gt;保险认可度 - 中&lt;/font&gt;" style="shape=rect;rounded=1;whiteSpace=wrap;html=1;shadow=0;strokeColor=none;fillColor=#FFCCCC;arcSize=30;fontSize=14;spacingLeft=42;fontStyle=1;fontColor=#FFFFFF;align=center;container=0;" parent="IVhhmlBJzWaTM9tkxCPf-33" vertex="1">
          <mxGeometry x="18" y="6" width="102" height="24" as="geometry" />
        </mxCell>
        <mxCell id="IVhhmlBJzWaTM9tkxCPf-32" value="104" style="shape=ellipse;perimeter=ellipsePerimeter;fontSize=12;fontStyle=1;shadow=0;strokeColor=#ffffff;fillColor=#FF3333;strokeWidth=4;fontColor=#ffffff;align=center;container=0;" parent="IVhhmlBJzWaTM9tkxCPf-33" vertex="1">
          <mxGeometry width="36" height="36" as="geometry" />
        </mxCell>
        <mxCell id="IVhhmlBJzWaTM9tkxCPf-14" value="" style="group" parent="1" vertex="1" connectable="0">
          <mxGeometry x="320" y="190" width="160" height="36" as="geometry" />
        </mxCell>
        <mxCell id="IVhhmlBJzWaTM9tkxCPf-9" value="&lt;font style=&quot;font-size: 12px;&quot;&gt;需求 - 重疾&lt;/font&gt;" style="shape=rect;rounded=1;whiteSpace=wrap;html=1;shadow=0;strokeColor=none;fillColor=#FFCCCC;arcSize=30;fontSize=14;spacingLeft=42;fontStyle=1;fontColor=#FFFFFF;align=left;container=0;" parent="IVhhmlBJzWaTM9tkxCPf-14" vertex="1">
          <mxGeometry x="18" y="6" width="122" height="24" as="geometry" />
        </mxCell>
        <mxCell id="IVhhmlBJzWaTM9tkxCPf-10" value="341" style="shape=ellipse;perimeter=ellipsePerimeter;fontSize=12;fontStyle=1;shadow=0;strokeColor=#ffffff;fillColor=#FF3333;strokeWidth=4;fontColor=#ffffff;align=center;container=0;" parent="IVhhmlBJzWaTM9tkxCPf-14" vertex="1">
          <mxGeometry width="36" height="36" as="geometry" />
        </mxCell>
        <mxCell id="IVhhmlBJzWaTM9tkxCPf-23" value="&lt;font style=&quot;font-size: 12px;&quot;&gt;男性&lt;/font&gt;" style="shape=rect;rounded=1;whiteSpace=wrap;html=1;shadow=0;strokeColor=none;fillColor=#B1DDF0;arcSize=30;fontSize=14;spacingLeft=42;fontStyle=1;fontColor=#FFFFFF;align=left;container=0;" parent="1" vertex="1">
          <mxGeometry x="339" y="276" width="102" height="24" as="geometry" />
        </mxCell>
        <mxCell id="IVhhmlBJzWaTM9tkxCPf-22" value="" style="group" parent="1" vertex="1" connectable="0">
          <mxGeometry x="321" y="270" width="120" height="36" as="geometry" />
        </mxCell>
        <mxCell id="IVhhmlBJzWaTM9tkxCPf-24" value="169" style="shape=ellipse;perimeter=ellipsePerimeter;fontSize=12;fontStyle=1;shadow=0;strokeColor=#ffffff;fillColor=#10739E;strokeWidth=4;fontColor=#ffffff;align=center;container=0;" parent="IVhhmlBJzWaTM9tkxCPf-22" vertex="1">
          <mxGeometry width="36" height="36" as="geometry" />
        </mxCell>
        <mxCell id="IVhhmlBJzWaTM9tkxCPf-38" value="&lt;font style=&quot;font-size: 12px;&quot;&gt;APP用户&lt;/font&gt;" style="shape=rect;rounded=1;whiteSpace=wrap;html=1;shadow=0;strokeColor=none;fillColor=#E6E6E6;arcSize=30;fontSize=14;spacingLeft=42;fontStyle=1;fontColor=#FFFFFF;align=left;container=0;" parent="1" vertex="1">
          <mxGeometry x="339" y="326" width="102" height="24" as="geometry" />
        </mxCell>
        <mxCell id="IVhhmlBJzWaTM9tkxCPf-39" value="" style="group" parent="1" vertex="1" connectable="0">
          <mxGeometry x="321" y="320" width="120" height="36" as="geometry" />
        </mxCell>
        <mxCell id="IVhhmlBJzWaTM9tkxCPf-40" value="67" style="shape=ellipse;perimeter=ellipsePerimeter;fontSize=12;fontStyle=1;shadow=0;strokeColor=#ffffff;fillColor=#999999;strokeWidth=4;fontColor=#ffffff;align=center;container=0;" parent="IVhhmlBJzWaTM9tkxCPf-39" vertex="1">
          <mxGeometry width="36" height="36" as="geometry" />
        </mxCell>
        <mxCell id="IVhhmlBJzWaTM9tkxCPf-41" value="&lt;font style=&quot;font-size: 12px;&quot;&gt;员工&lt;/font&gt;" style="shape=rect;rounded=1;whiteSpace=wrap;html=1;shadow=0;strokeColor=none;fillColor=#E6E6E6;arcSize=30;fontSize=14;spacingLeft=42;fontStyle=1;fontColor=#FFFFFF;align=left;container=0;" parent="1" vertex="1">
          <mxGeometry x="468" y="326" width="72" height="24" as="geometry" />
        </mxCell>
        <mxCell id="IVhhmlBJzWaTM9tkxCPf-42" value="" style="group" parent="1" vertex="1" connectable="0">
          <mxGeometry x="450" y="320" width="120" height="36" as="geometry" />
        </mxCell>
        <mxCell id="IVhhmlBJzWaTM9tkxCPf-43" value="34" style="shape=ellipse;perimeter=ellipsePerimeter;fontSize=12;fontStyle=1;shadow=0;strokeColor=#ffffff;fillColor=#999999;strokeWidth=4;fontColor=#ffffff;align=center;container=0;" parent="IVhhmlBJzWaTM9tkxCPf-42" vertex="1">
          <mxGeometry width="36" height="36" as="geometry" />
        </mxCell>
        <mxCell id="IVhhmlBJzWaTM9tkxCPf-45" value="金融行业" style="shape=rect;rounded=1;whiteSpace=wrap;shadow=0;strokeColor=none;fillColor=#E6E6E6;arcSize=30;fontSize=8;spacingLeft=42;fontStyle=1;fontColor=#FFFFFF;align=left;container=0;labelPosition=center;verticalLabelPosition=middle;verticalAlign=middle;horizontal=1;" parent="1" vertex="1">
          <mxGeometry x="560" y="326" width="80" height="24" as="geometry" />
        </mxCell>
        <mxCell id="IVhhmlBJzWaTM9tkxCPf-46" value="25" style="shape=ellipse;perimeter=ellipsePerimeter;fontSize=12;fontStyle=1;shadow=0;strokeColor=#ffffff;fillColor=#999999;strokeWidth=4;fontColor=#ffffff;align=center;container=0;" parent="1" vertex="1">
          <mxGeometry x="550" y="320" width="36" height="36" as="geometry" />
        </mxCell>
        <mxCell id="IVhhmlBJzWaTM9tkxCPf-3" value="&lt;font style=&quot;font-size: 12px;&quot;&gt;Meeting - 40%&lt;/font&gt;" style="strokeWidth=1;shadow=0;dashed=0;align=center;html=1;shape=mxgraph.mockup.text.callout;linkText=;textSize=17;textColor=#666666;callDir=NE;callStyle=line;fontSize=17;fontColor=#666666;align=right;verticalAlign=top;strokeColor=#666666;fillColor=#FF0000;" parent="1" vertex="1">
          <mxGeometry x="209" y="163" width="80" height="40" as="geometry" />
        </mxCell>
        <mxCell id="IVhhmlBJzWaTM9tkxCPf-7" value="&lt;font style=&quot;font-size: 12px;&quot;&gt;FNA - 20%&lt;/font&gt;" style="strokeWidth=1;shadow=0;dashed=0;align=center;html=1;shape=mxgraph.mockup.text.callout;linkText=;textSize=17;textColor=#666666;callDir=NW;callStyle=line;fontSize=17;fontColor=#666666;align=left;verticalAlign=top;strokeColor=#666666;fillColor=#FF0000;" parent="1" vertex="1">
          <mxGeometry x="46" y="192" width="80" height="50" as="geometry" />
        </mxCell>
        <mxCell id="IVhhmlBJzWaTM9tkxCPf-8" value="&lt;font style=&quot;font-size: 12px;&quot;&gt;Policy Effected - 5%&lt;/font&gt;" style="strokeWidth=1;shadow=0;dashed=0;align=center;html=1;shape=mxgraph.mockup.text.callout;linkText=;textSize=17;textColor=#666666;callDir=SW;callStyle=line;fontSize=17;fontColor=#666666;align=left;verticalAlign=top;strokeColor=#666666;fillColor=#FF0000;labelPosition=center;verticalLabelPosition=bottom;" parent="1" vertex="1">
          <mxGeometry x="50" y="293" width="94" height="30" as="geometry" />
        </mxCell>
        <mxCell id="4VUn8oBzwwuEZCWYVV4Y-3" value="" style="verticalLabelPosition=bottom;verticalAlign=top;html=1;shape=mxgraph.basic.partConcEllipse;fillColor=#FFCCCC;strokeColor=none;startAngle=0.25;endAngle=0.56;arcWidth=0.2;" parent="1" vertex="1">
          <mxGeometry x="129" y="203" width="100" height="100" as="geometry" />
        </mxCell>
        <mxCell id="4VUn8oBzwwuEZCWYVV4Y-4" value="" style="verticalLabelPosition=bottom;verticalAlign=top;html=1;shape=mxgraph.basic.partConcEllipse;fillColor=#FF9999;strokeColor=none;startAngle=0.8;endAngle=0.25;arcWidth=0.2;" parent="1" vertex="1">
          <mxGeometry x="129" y="203" width="100" height="100" as="geometry" />
        </mxCell>
        <mxCell id="4VUn8oBzwwuEZCWYVV4Y-5" value="" style="verticalLabelPosition=bottom;verticalAlign=top;html=1;shape=mxgraph.basic.partConcEllipse;fillColor=#FF6666;strokeColor=none;startAngle=0.56;endAngle=0.66;arcWidth=0.2;" parent="1" vertex="1">
          <mxGeometry x="129" y="203" width="100" height="100" as="geometry" />
        </mxCell>
        <mxCell id="4VUn8oBzwwuEZCWYVV4Y-6" value="" style="verticalLabelPosition=bottom;verticalAlign=top;html=1;shape=mxgraph.basic.partConcEllipse;fillColor=#FF0000;strokeColor=none;startAngle=0.66;endAngle=0.8;arcWidth=0.2;" parent="1" vertex="1">
          <mxGeometry x="129" y="203" width="100" height="100" as="geometry" />
        </mxCell>
        <mxCell id="4VUn8oBzwwuEZCWYVV4Y-7" value="&lt;b&gt;&lt;font style=&quot;font-size: 22px;&quot;&gt;487&lt;/font&gt;&lt;/b&gt;" style="text;html=1;align=center;verticalAlign=middle;resizable=0;points=[];autosize=1;strokeColor=none;fillColor=none;fontColor=#808080;fontStyle=4" parent="1" vertex="1">
          <mxGeometry x="149" y="233" width="60" height="40" as="geometry" />
        </mxCell>
        <mxCell id="IVhhmlBJzWaTM9tkxCPf-5" value="&lt;font style=&quot;font-size: 12px;&quot;&gt;Contacted - 35%&lt;/font&gt;" style="strokeWidth=1;shadow=0;dashed=0;align=center;html=1;shape=mxgraph.mockup.text.callout;linkText=;textSize=17;textColor=#666666;callDir=SE;callStyle=line;fontSize=17;fontColor=#666666;align=right;verticalAlign=top;strokeColor=#666666;fillColor=#FF0000;direction=east;overflow=visible;labelPosition=center;verticalLabelPosition=bottom;" parent="1" vertex="1">
          <mxGeometry x="209" y="303" width="100" height="30" as="geometry" />
        </mxCell>
        <mxCell id="IVhhmlBJzWaTM9tkxCPf-49" value="" style="endArrow=none;html=1;rounded=0;fontSize=8;fontColor=#808080;strokeColor=#B3B3B3;" parent="1" edge="1">
          <mxGeometry width="50" height="50" relative="1" as="geometry">
            <mxPoint x="40" y="370" as="sourcePoint" />
            <mxPoint x="270" y="370" as="targetPoint" />
          </mxGeometry>
        </mxCell>
        <mxCell id="IVhhmlBJzWaTM9tkxCPf-50" value="" style="endArrow=none;html=1;rounded=0;fontSize=8;fontColor=#808080;strokeColor=#B3B3B3;" parent="1" edge="1">
          <mxGeometry width="50" height="50" relative="1" as="geometry">
            <mxPoint x="321" y="370" as="sourcePoint" />
            <mxPoint x="590" y="370" as="targetPoint" />
          </mxGeometry>
        </mxCell>
        <mxCell id="-HoqmKNUyu_eFrnF34BB-4" value="" style="html=1;shadow=0;dashed=0;shape=mxgraph.bootstrap.rrect;rSize=5;strokeColor=#F8F9FA;html=1;whiteSpace=wrap;fillColor=none;fontColor=#212529;verticalAlign=bottom;align=left;spacing=20;spacingBottom=0;fontSize=14;" parent="1" vertex="1">
          <mxGeometry x="39" y="390" width="361" height="360" as="geometry" />
        </mxCell>
        <mxCell id="-HoqmKNUyu_eFrnF34BB-5" value="&lt;font style=&quot;font-size: 15px;&quot;&gt;About 2300 worknotes related to.&lt;/font&gt;" style="html=1;shadow=0;dashed=0;shape=mxgraph.bootstrap.topButton;rSize=5;perimeter=none;whiteSpace=wrap;fillColor=#F7F7F7;strokeColor=#F8F9FA;fontColor=#6C767D;resizeWidth=1;fontSize=18;align=left;spacing=20;" parent="-HoqmKNUyu_eFrnF34BB-4" vertex="1">
          <mxGeometry width="361" height="50" relative="1" as="geometry" />
        </mxCell>
        <mxCell id="-HoqmKNUyu_eFrnF34BB-61" value="" style="group" parent="-HoqmKNUyu_eFrnF34BB-4" vertex="1" connectable="0">
          <mxGeometry x="23.040000000000006" y="70" width="314.93" height="290" as="geometry" />
        </mxCell>
        <mxCell id="-HoqmKNUyu_eFrnF34BB-36" value="" style="ellipse;whiteSpace=wrap;html=1;aspect=fixed;shadow=0;fillColor=none;strokeColor=#333333;fontSize=16;align=center;strokeWidth=2;fontColor=#808080;" parent="-HoqmKNUyu_eFrnF34BB-61" vertex="1">
          <mxGeometry x="153.528375" width="7.8732500000000005" height="7.8732500000000005" as="geometry" />
        </mxCell>
        <mxCell id="-HoqmKNUyu_eFrnF34BB-35" value="" style="endArrow=none;html=1;strokeWidth=3;strokeColor=#CCCCCC;labelBackgroundColor=none;fontSize=16;rounded=0;fontColor=#808080;startArrow=none;" parent="-HoqmKNUyu_eFrnF34BB-61" source="-HoqmKNUyu_eFrnF34BB-37" edge="1">
          <mxGeometry relative="1" as="geometry">
            <mxPoint x="157.465" y="282.12669683257917" as="targetPoint" />
          </mxGeometry>
        </mxCell>
        <mxCell id="-HoqmKNUyu_eFrnF34BB-38" value="" style="verticalLabelPosition=middle;verticalAlign=middle;html=1;shape=mxgraph.infographic.circularCallout2;dy=15;strokeColor=#10739E;labelPosition=center;align=center;fontColor=#10739E;fontStyle=1;fontSize=24;shadow=0;direction=north;fillColor=#999999;" parent="-HoqmKNUyu_eFrnF34BB-61" vertex="1">
          <mxGeometry y="19.683257918552034" width="161.401625" height="39.36651583710407" as="geometry" />
        </mxCell>
        <mxCell id="-HoqmKNUyu_eFrnF34BB-39" value="" style="verticalLabelPosition=middle;verticalAlign=middle;html=1;shape=mxgraph.infographic.circularCallout2;dy=15;strokeColor=#F2931E;labelPosition=center;align=center;fontColor=#F2931E;fontStyle=1;fontSize=24;shadow=0;direction=north;flipH=1;fillColor=#999999;" parent="-HoqmKNUyu_eFrnF34BB-61" vertex="1">
          <mxGeometry x="153.528375" y="65.61085972850678" width="161.401625" height="39.36651583710407" as="geometry" />
        </mxCell>
        <mxCell id="-HoqmKNUyu_eFrnF34BB-40" value="" style="verticalLabelPosition=middle;verticalAlign=middle;html=1;shape=mxgraph.infographic.circularCallout2;dy=15;strokeColor=#AE4132;labelPosition=center;align=center;fontColor=#10739E;fontStyle=1;fontSize=24;shadow=0;direction=north;fillColor=#999999;" parent="-HoqmKNUyu_eFrnF34BB-61" vertex="1">
          <mxGeometry y="111.53846153846153" width="161.401625" height="39.36651583710407" as="geometry" />
        </mxCell>
        <mxCell id="-HoqmKNUyu_eFrnF34BB-41" value="" style="verticalLabelPosition=middle;verticalAlign=middle;html=1;shape=mxgraph.infographic.circularCallout2;dy=15;strokeColor=#23445D;labelPosition=center;align=center;fontColor=#10739E;fontStyle=1;fontSize=24;shadow=0;direction=north;flipH=1;fillColor=#999999;" parent="-HoqmKNUyu_eFrnF34BB-61" vertex="1">
          <mxGeometry x="153.528375" y="157.46606334841627" width="161.401625" height="39.36651583710407" as="geometry" />
        </mxCell>
        <mxCell id="-HoqmKNUyu_eFrnF34BB-42" value="" style="verticalLabelPosition=middle;verticalAlign=middle;html=1;shape=mxgraph.infographic.circularCallout2;dy=15;strokeColor=#12AAB5;labelPosition=center;align=center;fontColor=#10739E;fontStyle=1;fontSize=24;shadow=0;direction=north;fillColor=#999999;" parent="-HoqmKNUyu_eFrnF34BB-61" vertex="1">
          <mxGeometry y="203.39366515837102" width="161.401625" height="39.36651583710407" as="geometry" />
        </mxCell>
        <mxCell id="-HoqmKNUyu_eFrnF34BB-44" value="Prosp A" style="fillColor=#10739E;strokecolor=none;rounded=1;fontColor=#FFFFFF;strokeColor=none;fontStyle=1;fontSize=10;html=0;" parent="-HoqmKNUyu_eFrnF34BB-61" vertex="1">
          <mxGeometry x="45.92729166666667" y="13.122171945701355" width="104.97666666666667" height="19.683257918552034" as="geometry" />
        </mxCell>
        <mxCell id="-HoqmKNUyu_eFrnF34BB-45" value="Prosp B" style="fillColor=#F2931E;strokecolor=none;rounded=1;fontColor=#FFFFFF;strokeColor=none;fontStyle=1;fontSize=10;html=0;" parent="-HoqmKNUyu_eFrnF34BB-61" vertex="1">
          <mxGeometry x="164.02604166666669" y="55.76923076923077" width="104.97666666666667" height="19.683257918552034" as="geometry" />
        </mxCell>
        <mxCell id="-HoqmKNUyu_eFrnF34BB-46" value="Prosp C" style="fillColor=#AE4132;strokecolor=none;rounded=1;fontColor=#FFFFFF;strokeColor=none;fontStyle=1;fontSize=10;html=0;" parent="-HoqmKNUyu_eFrnF34BB-61" vertex="1">
          <mxGeometry x="45.92729166666667" y="104.97737556561084" width="104.97666666666667" height="19.683257918552034" as="geometry" />
        </mxCell>
        <mxCell id="-HoqmKNUyu_eFrnF34BB-47" value="Prosp D" style="fillColor=#23445D;strokecolor=none;rounded=1;fontColor=#FFFFFF;strokeColor=none;fontStyle=1;fontSize=10;html=0;" parent="-HoqmKNUyu_eFrnF34BB-61" vertex="1">
          <mxGeometry x="164.02604166666669" y="147.62443438914028" width="104.97666666666667" height="19.683257918552034" as="geometry" />
        </mxCell>
        <mxCell id="-HoqmKNUyu_eFrnF34BB-48" value="Prosp X" style="fillColor=#12AAB5;strokecolor=none;rounded=1;fontColor=#FFFFFF;strokeColor=none;fontStyle=1;fontSize=10;html=0;" parent="-HoqmKNUyu_eFrnF34BB-61" vertex="1">
          <mxGeometry x="45.92729166666667" y="196.83257918552036" width="104.97666666666667" height="19.683257918552034" as="geometry" />
        </mxCell>
        <mxCell id="-HoqmKNUyu_eFrnF34BB-50" value="&lt;font style=&quot;font-size: 8px;&quot;&gt;&lt;font style=&quot;font-size: 8px;&quot; color=&quot;#10739E&quot;&gt;&lt;b style=&quot;font-size: 8px;&quot;&gt;2022-12-01, 金中环大厦&lt;/b&gt;&lt;/font&gt;&lt;br style=&quot;font-size: 8px;&quot;&gt;&lt;br style=&quot;font-size: 8px;&quot;&gt;&lt;font style=&quot;font-size: 8px;&quot;&gt;金融行业, 对重疾感兴趣.&lt;/font&gt;&lt;br&gt;&lt;/font&gt;" style="rounded=1;strokeColor=none;fillColor=#EEEEEE;align=center;arcSize=12;verticalAlign=middle;whiteSpace=wrap;html=1;fontSize=12;fontColor=#808080;" parent="-HoqmKNUyu_eFrnF34BB-61" vertex="1">
          <mxGeometry x="45.92729166666667" y="45.927601809954744" width="104.97666666666667" height="45.927601809954744" as="geometry" />
        </mxCell>
        <mxCell id="-HoqmKNUyu_eFrnF34BB-51" value="&lt;font style=&quot;font-size: 8px;&quot;&gt;&lt;font style=&quot;font-size: 8px;&quot; color=&quot;#F2931E&quot;&gt;&lt;b&gt;2022-11-01, 太古汇&lt;/b&gt;&lt;/font&gt;&lt;br&gt;&lt;br&gt;&lt;font style=&quot;font-size: 8px;&quot;&gt;讲解重疾产品&lt;/font&gt;&lt;/font&gt;" style="rounded=1;strokeColor=none;fillColor=#EEEEEE;align=center;arcSize=12;verticalAlign=middle;whiteSpace=wrap;html=1;fontSize=12;fontColor=#808080;" parent="-HoqmKNUyu_eFrnF34BB-61" vertex="1">
          <mxGeometry x="164.02604166666669" y="91.85520361990949" width="104.97666666666667" height="45.927601809954744" as="geometry" />
        </mxCell>
        <mxCell id="-HoqmKNUyu_eFrnF34BB-52" value="&lt;font size=&quot;1&quot; color=&quot;#ae4132&quot;&gt;&lt;b style=&quot;font-size: 8px;&quot;&gt;2022-09-09&lt;/b&gt;&lt;/font&gt;" style="rounded=1;strokeColor=none;fillColor=#EEEEEE;align=center;arcSize=12;verticalAlign=top;whiteSpace=wrap;html=1;fontSize=12;fontColor=#808080;" parent="-HoqmKNUyu_eFrnF34BB-61" vertex="1">
          <mxGeometry x="45.92729166666667" y="137.78280542986423" width="104.97666666666667" height="45.927601809954744" as="geometry" />
        </mxCell>
        <mxCell id="-HoqmKNUyu_eFrnF34BB-53" value="&lt;font style=&quot;font-size: 8px;&quot;&gt;&lt;font style=&quot;font-size: 8px;&quot; color=&quot;#23445d&quot;&gt;&lt;b&gt;2022-08-31&lt;/b&gt;&lt;/font&gt;&lt;br&gt;&lt;br&gt;&lt;font style=&quot;font-size: 8px;&quot;&gt;xxxxxxxx&lt;/font&gt;&lt;/font&gt;" style="rounded=1;strokeColor=none;fillColor=#EEEEEE;align=center;arcSize=12;verticalAlign=middle;whiteSpace=wrap;html=1;fontSize=12;fontColor=#808080;" parent="-HoqmKNUyu_eFrnF34BB-61" vertex="1">
          <mxGeometry x="164.02604166666669" y="183.71040723981898" width="104.97666666666667" height="45.927601809954744" as="geometry" />
        </mxCell>
        <mxCell id="-HoqmKNUyu_eFrnF34BB-54" value="&lt;font style=&quot;font-size: 8px;&quot;&gt;&lt;font style=&quot;font-size: 8px;&quot; color=&quot;#12aab5&quot;&gt;&lt;b&gt;Date, location&lt;/b&gt;&lt;/font&gt;&lt;br&gt;&lt;br&gt;&lt;font style=&quot;font-size: 8px;&quot;&gt;Worknote details.&lt;/font&gt;&lt;/font&gt;" style="rounded=1;strokeColor=none;fillColor=#EEEEEE;align=center;arcSize=12;verticalAlign=middle;whiteSpace=wrap;html=1;fontSize=12;fontColor=#808080;" parent="-HoqmKNUyu_eFrnF34BB-61" vertex="1">
          <mxGeometry x="45.92729166666667" y="229.63800904977373" width="104.97666666666667" height="45.927601809954744" as="geometry" />
        </mxCell>
        <mxCell id="-HoqmKNUyu_eFrnF34BB-37" value="" style="ellipse;whiteSpace=wrap;html=1;aspect=fixed;shadow=0;fillColor=none;strokeColor=#333333;fontSize=16;align=center;strokeWidth=2;fontColor=#808080;" parent="-HoqmKNUyu_eFrnF34BB-61" vertex="1">
          <mxGeometry x="153.528375" y="282.12669683257917" width="7.8732500000000005" height="7.8732500000000005" as="geometry" />
        </mxCell>
        <mxCell id="-HoqmKNUyu_eFrnF34BB-60" value="" style="endArrow=none;html=1;strokeWidth=3;strokeColor=#CCCCCC;labelBackgroundColor=none;fontSize=16;rounded=0;fontColor=#808080;" parent="-HoqmKNUyu_eFrnF34BB-61" source="-HoqmKNUyu_eFrnF34BB-36" target="-HoqmKNUyu_eFrnF34BB-37" edge="1">
          <mxGeometry relative="1" as="geometry">
            <mxPoint x="157.465" y="7.873303167420815" as="sourcePoint" />
            <mxPoint x="157.465" y="282.12669683257917" as="targetPoint" />
          </mxGeometry>
        </mxCell>
        <mxCell id="-HoqmKNUyu_eFrnF34BB-33" value="" style="html=1;shadow=0;dashed=0;shape=mxgraph.bootstrap.rrect;rSize=5;strokeColor=#F8F9FA;html=1;whiteSpace=wrap;fillColor=none;fontColor=#212529;verticalAlign=bottom;align=left;spacing=20;spacingBottom=0;fontSize=14;container=0;" parent="1" vertex="1">
          <mxGeometry x="440" y="390" width="340" height="410" as="geometry" />
        </mxCell>
        <mxCell id="-HoqmKNUyu_eFrnF34BB-34" value="&lt;font style=&quot;font-size: 15px;&quot;&gt;About 394 prospects joined related events.&lt;/font&gt;" style="html=1;shadow=0;dashed=0;shape=mxgraph.bootstrap.topButton;rSize=5;perimeter=none;whiteSpace=wrap;fillColor=#F7F7F7;strokeColor=#F8F9FA;fontColor=#6C767D;resizeWidth=1;fontSize=18;align=left;spacing=20;" parent="1" vertex="1">
          <mxGeometry x="440" y="390" width="340" height="50" as="geometry" />
        </mxCell>
        <mxCell id="-HoqmKNUyu_eFrnF34BB-94" value="" style="group" parent="1" vertex="1" connectable="0">
          <mxGeometry x="470" y="450.001186440678" width="300" height="323.728813559322" as="geometry" />
        </mxCell>
        <mxCell id="-HoqmKNUyu_eFrnF34BB-63" value="" style="html=1;shape=mxgraph.infographic.ribbonSimple;notch1=20;notch2=0;fillColor=#10739E;strokeColor=none;shadow=1;fontSize=8;fontColor=#808080;container=0;" parent="-HoqmKNUyu_eFrnF34BB-94" vertex="1">
          <mxGeometry y="13.72881355932202" width="262.7156862745098" height="52.54237288135593" as="geometry" />
        </mxCell>
        <mxCell id="-HoqmKNUyu_eFrnF34BB-66" value="&lt;span style=&quot;font-size: 8px;&quot;&gt;25&lt;/span&gt;" style="shape=manualInput;whiteSpace=wrap;html=1;shadow=1;strokeColor=none;fillColor=#dddddd;fontSize=15;fontColor=#444444;align=right;direction=south;flipH=1;shadow=1;spacing=10;fontStyle=1;container=0;" parent="-HoqmKNUyu_eFrnF34BB-94" vertex="1">
          <mxGeometry x="215.426862745098" y="40" width="52.543137254901964" height="31.52542372881356" as="geometry" />
        </mxCell>
        <mxCell id="-HoqmKNUyu_eFrnF34BB-67" value="" style="shadow=0;dashed=0;html=1;strokeColor=none;shape=mxgraph.mscae.intune.user_group;fontSize=15;fontColor=#FFFFFF;align=left;fillColor=#999999;container=0;" parent="-HoqmKNUyu_eFrnF34BB-94" vertex="1">
          <mxGeometry x="26.27156862745096" y="30.54237288135596" width="26.271568627450982" height="19.440677966101696" as="geometry" />
        </mxCell>
        <mxCell id="-HoqmKNUyu_eFrnF34BB-68" value="" style="html=1;shape=mxgraph.infographic.ribbonSimple;notch1=20;notch2=0;fillColor=#F2931E;strokeColor=none;shadow=1;fontSize=8;fontColor=#808080;container=0;" parent="-HoqmKNUyu_eFrnF34BB-94" vertex="1">
          <mxGeometry y="76.77966101694915" width="262.7156862745098" height="52.54237288135593" as="geometry" />
        </mxCell>
        <mxCell id="-HoqmKNUyu_eFrnF34BB-71" value="&lt;font style=&quot;font-size: 8px;&quot;&gt;37&lt;br&gt;&lt;/font&gt;" style="shape=manualInput;whiteSpace=wrap;html=1;shadow=1;strokeColor=none;fillColor=#dddddd;fontSize=15;fontColor=#444444;align=right;direction=south;flipH=1;shadow=1;spacing=10;fontStyle=1;container=0;" parent="-HoqmKNUyu_eFrnF34BB-94" vertex="1">
          <mxGeometry x="215.426862745098" y="103.05084745762713" width="52.543137254901964" height="31.52542372881356" as="geometry" />
        </mxCell>
        <mxCell id="-HoqmKNUyu_eFrnF34BB-72" value="" style="shadow=0;dashed=0;html=1;strokeColor=none;shape=mxgraph.mscae.intune.user_group;fontSize=15;fontColor=#FFFFFF;align=left;fillColor=#999999;container=0;" parent="-HoqmKNUyu_eFrnF34BB-94" vertex="1">
          <mxGeometry x="26.27156862745096" y="93.59322033898309" width="26.271568627450982" height="19.440677966101696" as="geometry" />
        </mxCell>
        <mxCell id="-HoqmKNUyu_eFrnF34BB-73" value="&lt;span style=&quot;color: rgba(0, 0, 0, 0); font-family: monospace; font-size: 0px; text-align: start;&quot;&gt;%3CmxGraphModel%3E%3Croot%3E%3CmxCell%20id%3D%220%22%2F%3E%3CmxCell%20id%3D%221%22%20parent%3D%220%22%2F%3E%3CmxCell%20id%3D%222%22%20value%3D%22%26lt%3Bspan%20style%3D%26quot%3Bfont-size%3A%208px%3B%26quot%3B%26gt%3B%26lt%3Bb%26gt%3B%E5%91%98%E5%B7%A5%E9%87%8D%E7%96%BE%E4%BC%98%E6%83%A0%20-%202022-10-31%26lt%3B%2Fb%26gt%3B%26lt%3B%2Fspan%26gt%3B%22%20style%3D%22text%3BstrokeColor%3Dnone%3BfillColor%3Dnone%3Bspacing%3D5%3BspacingTop%3D0%3BwhiteSpace%3Dwrap%3Boverflow%3Dhidden%3Brounded%3D0%3Bshadow%3D0%3BfontSize%3D15%3BfontColor%3D%23FFFFFF%3Balign%3Dleft%3Bhtml%3D1%3B%22%20vertex%3D%221%22%20parent%3D%221%22%3E%3CmxGeometry%20x%3D%22570%22%20y%3D%22784.32%22%20width%3D%22120%22%20height%3D%2250%22%20as%3D%22geometry%22%2F%3E%3C%2FmxCell%3E%3C%2Froot%3E%3C%2FmxGraphModel%3E&lt;/span&gt;" style="html=1;shape=mxgraph.infographic.ribbonSimple;notch1=20;notch2=0;fillColor=#AE4132;strokeColor=none;shadow=1;fontSize=8;fontColor=#808080;container=0;" parent="-HoqmKNUyu_eFrnF34BB-94" vertex="1">
          <mxGeometry y="139.83050847457628" width="262.7156862745098" height="52.54237288135593" as="geometry" />
        </mxCell>
        <mxCell id="-HoqmKNUyu_eFrnF34BB-76" value="&lt;font style=&quot;font-size: 8px;&quot;&gt;(参与人数)&lt;/font&gt;" style="shape=manualInput;whiteSpace=wrap;html=1;shadow=1;strokeColor=none;fillColor=#dddddd;fontSize=15;fontColor=#444444;align=right;direction=south;flipH=1;shadow=1;spacing=10;fontStyle=1;container=0;" parent="-HoqmKNUyu_eFrnF34BB-94" vertex="1">
          <mxGeometry x="215.43000000000006" y="166.10000000000002" width="74.57" height="23.9" as="geometry" />
        </mxCell>
        <mxCell id="-HoqmKNUyu_eFrnF34BB-77" value="" style="shadow=0;dashed=0;html=1;strokeColor=none;shape=mxgraph.mscae.intune.user_group;fontSize=15;fontColor=#FFFFFF;align=left;fillColor=#999999;container=0;" parent="-HoqmKNUyu_eFrnF34BB-94" vertex="1">
          <mxGeometry x="26.27156862745096" y="156.6440677966101" width="26.271568627450982" height="19.440677966101696" as="geometry" />
        </mxCell>
        <mxCell id="-HoqmKNUyu_eFrnF34BB-78" value="" style="html=1;shape=mxgraph.infographic.ribbonSimple;notch1=20;notch2=0;fillColor=#23445D;strokeColor=none;shadow=1;fontSize=8;fontColor=#808080;container=0;" parent="-HoqmKNUyu_eFrnF34BB-94" vertex="1">
          <mxGeometry y="202.8813559322034" width="262.7156862745098" height="52.54237288135593" as="geometry" />
        </mxCell>
        <mxCell id="-HoqmKNUyu_eFrnF34BB-81" value="&lt;font style=&quot;font-size: 8px;&quot;&gt;xx&lt;/font&gt;" style="shape=manualInput;whiteSpace=wrap;html=1;shadow=1;strokeColor=none;fillColor=#dddddd;fontSize=15;fontColor=#444444;align=right;direction=south;flipH=1;shadow=1;spacing=10;fontStyle=1;container=0;" parent="-HoqmKNUyu_eFrnF34BB-94" vertex="1">
          <mxGeometry x="215.426862745098" y="229.15254237288138" width="52.543137254901964" height="31.52542372881356" as="geometry" />
        </mxCell>
        <mxCell id="-HoqmKNUyu_eFrnF34BB-82" value="" style="shadow=0;dashed=0;html=1;strokeColor=none;shape=mxgraph.mscae.intune.user_group;fontSize=15;fontColor=#FFFFFF;align=left;fillColor=#999999;container=0;" parent="-HoqmKNUyu_eFrnF34BB-94" vertex="1">
          <mxGeometry x="26.27156862745096" y="219.69491525423734" width="26.271568627450982" height="19.440677966101696" as="geometry" />
        </mxCell>
        <mxCell id="-HoqmKNUyu_eFrnF34BB-83" value="" style="html=1;shape=mxgraph.infographic.ribbonSimple;notch1=20;notch2=0;fillColor=#12AAB5;strokeColor=none;shadow=1;fontSize=8;fontColor=#808080;container=0;" parent="-HoqmKNUyu_eFrnF34BB-94" vertex="1">
          <mxGeometry y="265.93220338983053" width="262.7156862745098" height="52.54661016949149" as="geometry" />
        </mxCell>
        <mxCell id="-HoqmKNUyu_eFrnF34BB-86" value="&lt;font style=&quot;font-size: 8px;&quot;&gt;xx&lt;/font&gt;" style="shape=manualInput;whiteSpace=wrap;html=1;shadow=1;strokeColor=none;fillColor=#dddddd;fontSize=15;fontColor=#444444;align=right;direction=south;flipH=1;shadow=1;spacing=10;fontStyle=1;container=0;" parent="-HoqmKNUyu_eFrnF34BB-94" vertex="1">
          <mxGeometry x="215.426862745098" y="292.2033898305084" width="52.543137254901964" height="31.52542372881356" as="geometry" />
        </mxCell>
        <mxCell id="-HoqmKNUyu_eFrnF34BB-87" value="" style="shadow=0;dashed=0;html=1;strokeColor=none;shape=mxgraph.mscae.intune.user_group;fontSize=15;fontColor=#FFFFFF;align=left;fillColor=#999999;container=0;" parent="-HoqmKNUyu_eFrnF34BB-94" vertex="1">
          <mxGeometry x="26.27156862745096" y="282.74576271186436" width="26.271568627450982" height="19.440677966101696" as="geometry" />
        </mxCell>
        <mxCell id="-HoqmKNUyu_eFrnF34BB-89" value="&lt;span style=&quot;font-size: 8px;&quot;&gt;&lt;b&gt;员工重疾优惠 - 2022-10-31&lt;/b&gt;&lt;/span&gt;" style="text;strokeColor=none;fillColor=none;spacing=5;spacingTop=0;whiteSpace=wrap;overflow=hidden;rounded=0;shadow=0;fontSize=15;fontColor=#FFFFFF;align=left;html=1;container=0;" parent="-HoqmKNUyu_eFrnF34BB-94" vertex="1">
          <mxGeometry x="90" y="78.04881355932207" width="120" height="50" as="geometry" />
        </mxCell>
        <mxCell id="-HoqmKNUyu_eFrnF34BB-90" value="&lt;span style=&quot;font-size: 8px;&quot;&gt;&lt;b&gt;重疾相关活动 - YYYY-MM-DD&lt;/b&gt;&lt;/span&gt;" style="text;strokeColor=none;fillColor=none;spacing=5;spacingTop=0;whiteSpace=wrap;overflow=hidden;rounded=0;shadow=0;fontSize=15;fontColor=#FFFFFF;align=left;html=1;container=0;" parent="-HoqmKNUyu_eFrnF34BB-94" vertex="1">
          <mxGeometry x="90" y="143.72881355932202" width="120" height="50" as="geometry" />
        </mxCell>
        <mxCell id="-HoqmKNUyu_eFrnF34BB-91" value="&lt;span style=&quot;font-size: 8px;&quot;&gt;&lt;b&gt;重疾相关活动 - YYYY-MM-DD&lt;/b&gt;&lt;/span&gt;" style="text;strokeColor=none;fillColor=none;spacing=5;spacingTop=0;whiteSpace=wrap;overflow=hidden;rounded=0;shadow=0;fontSize=15;fontColor=#FFFFFF;align=left;html=1;container=0;" parent="-HoqmKNUyu_eFrnF34BB-94" vertex="1">
          <mxGeometry x="90" y="204.41881355932207" width="120" height="50" as="geometry" />
        </mxCell>
        <mxCell id="-HoqmKNUyu_eFrnF34BB-64" value="" style="shape=step;perimeter=stepPerimeter;whiteSpace=wrap;html=1;fixedSize=1;shadow=0;strokeColor=none;strokeWidth=6;fillColor=#CCCCCC;size=20;fontSize=8;fontColor=#808080;container=0;" parent="-HoqmKNUyu_eFrnF34BB-94" vertex="1">
          <mxGeometry x="60" y="20" width="30" height="40" as="geometry">
            <mxPoint x="60" y="-20" as="offset" />
          </mxGeometry>
        </mxCell>
        <mxCell id="-HoqmKNUyu_eFrnF34BB-69" value="" style="shape=step;perimeter=stepPerimeter;whiteSpace=wrap;html=1;fixedSize=1;shadow=0;strokeColor=none;strokeWidth=6;fillColor=#CCCCCC;size=20;fontSize=8;fontColor=#808080;container=0;" parent="-HoqmKNUyu_eFrnF34BB-94" vertex="1">
          <mxGeometry x="60" y="83.05084745762713" width="30" height="40" as="geometry">
            <mxPoint x="60" y="-20" as="offset" />
          </mxGeometry>
        </mxCell>
        <mxCell id="-HoqmKNUyu_eFrnF34BB-74" value="" style="shape=step;perimeter=stepPerimeter;whiteSpace=wrap;html=1;fixedSize=1;shadow=0;strokeColor=none;strokeWidth=6;fillColor=#CCCCCC;size=20;fontSize=8;fontColor=#808080;container=0;" parent="-HoqmKNUyu_eFrnF34BB-94" vertex="1">
          <mxGeometry x="60" y="146.10169491525426" width="30" height="40" as="geometry">
            <mxPoint x="60" y="-20" as="offset" />
          </mxGeometry>
        </mxCell>
        <mxCell id="-HoqmKNUyu_eFrnF34BB-79" value="" style="shape=step;perimeter=stepPerimeter;whiteSpace=wrap;html=1;fixedSize=1;shadow=0;strokeColor=none;strokeWidth=6;fillColor=#CCCCCC;size=20;fontSize=8;fontColor=#808080;container=0;" parent="-HoqmKNUyu_eFrnF34BB-94" vertex="1">
          <mxGeometry x="60" y="209.15254237288138" width="30" height="40" as="geometry">
            <mxPoint x="60" y="-20" as="offset" />
          </mxGeometry>
        </mxCell>
        <mxCell id="-HoqmKNUyu_eFrnF34BB-84" value="" style="shape=step;perimeter=stepPerimeter;whiteSpace=wrap;html=1;fixedSize=1;shadow=0;strokeColor=none;strokeWidth=6;fillColor=#CCCCCC;size=20;fontSize=8;fontColor=#808080;container=0;" parent="-HoqmKNUyu_eFrnF34BB-94" vertex="1">
          <mxGeometry x="60" y="272.2055084745763" width="30" height="40" as="geometry">
            <mxPoint x="60" y="-20" as="offset" />
          </mxGeometry>
        </mxCell>
        <mxCell id="-HoqmKNUyu_eFrnF34BB-92" value="&lt;span style=&quot;font-size: 8px;&quot;&gt;&lt;b&gt;重疾相关活动 - YYYY-MM-DD&lt;/b&gt;&lt;/span&gt;" style="text;strokeColor=none;fillColor=none;spacing=5;spacingTop=0;whiteSpace=wrap;overflow=hidden;rounded=0;shadow=0;fontSize=15;fontColor=#FFFFFF;align=left;html=1;container=0;" parent="-HoqmKNUyu_eFrnF34BB-94" vertex="1">
          <mxGeometry x="90" y="268.478813559322" width="120" height="50" as="geometry" />
        </mxCell>
        <mxCell id="gVE117C6BnLVUP38j_PD-1" value="&lt;span style=&quot;font-size: 8px;&quot;&gt;&lt;b&gt;员工重疾优惠 - 2022-11-12&lt;/b&gt;&lt;/span&gt;" style="text;strokeColor=none;fillColor=none;spacing=5;spacingTop=0;whiteSpace=wrap;overflow=hidden;rounded=0;shadow=0;fontSize=15;fontColor=#FFFFFF;align=left;html=1;container=0;" vertex="1" parent="-HoqmKNUyu_eFrnF34BB-94">
          <mxGeometry x="95.42999999999995" y="13.728813559322077" width="120" height="50" as="geometry" />
        </mxCell>
      </root>
    </mxGraphModel>
  </diagram>
</mxfile>
